<svg width="724" height="240" viewBox="0 0 724 240" fill="none" xmlns="http://www.w3.org/2000/svg">
<rect y="36.4751" width="167.05" height="167.05" rx="41.7625" fill="url(#paint0_linear_166_13)"/>
<g filter="url(#filter0_dddi_166_13)">
<path d="M84.5724 83.4578H85.1611C90.598 83.4776 118.146 83.676 125.574 85.6735C127.819 86.2832 129.866 87.4714 131.508 89.1196C133.15 90.7678 134.331 92.8181 134.933 95.0657C135.601 97.5791 136.071 100.906 136.388 104.339L136.454 105.027L136.6 106.746L136.653 107.434C137.083 113.48 137.136 119.141 137.142 120.378V120.874C137.136 122.158 137.076 128.203 136.6 134.5L136.547 135.194L136.487 135.882C136.157 139.665 135.667 143.422 134.933 146.187C134.331 148.435 133.15 150.485 131.508 152.133C129.866 153.781 127.819 154.97 125.574 155.579C117.901 157.643 88.7394 157.788 84.6981 157.795H83.7588C81.715 157.795 73.2621 157.755 64.399 157.451L63.2746 157.411L62.6992 157.385L61.5681 157.339L60.4371 157.292C53.0953 156.968 46.1041 156.446 42.8829 155.573C40.6383 154.964 38.5926 153.776 36.9503 152.129C35.308 150.482 34.1265 148.433 33.5238 146.187C32.7896 143.429 32.3002 139.665 31.9695 135.882L31.9166 135.188L31.8637 134.5C31.5353 130.018 31.3545 125.527 31.3213 121.033L31.3213 120.22C31.3345 118.798 31.3874 113.883 31.7446 108.46L31.7909 107.778L31.8107 107.434L31.8637 106.746L32.0092 105.027L32.0753 104.339C32.3928 100.906 32.8624 97.5725 33.5304 95.0657C34.1321 92.8181 35.3132 90.7678 36.9556 89.1196C38.5979 87.4714 40.6441 86.2832 42.8896 85.6735C46.1107 84.8137 53.1019 84.2845 60.4437 83.9538L61.5681 83.9075L62.7058 83.8678L63.2746 83.848L64.4056 83.8017C70.7004 83.5993 76.9978 83.4869 83.2958 83.4644L84.5724 83.4578ZM73.6523 104.689V136.557L101.148 120.63L73.6523 104.689Z" fill="white" style="fill:white;fill-opacity:1;"/>
</g>
<path d="M201.68 185V54.9438H251.929C258.76 54.9438 265 55.5349 270.649 56.7173C276.429 57.7682 281.487 59.3447 285.822 61.4466C290.289 63.5485 294.033 66.1759 297.054 69.3288C300.076 72.3503 302.375 75.8973 303.951 79.9697C305.528 83.9108 306.316 88.3117 306.316 93.1724C306.316 97.7704 305.593 101.974 304.148 105.784C302.703 109.462 300.536 112.681 297.646 115.44C294.887 118.198 291.34 120.497 287.005 122.337C282.801 124.044 277.874 125.292 272.225 126.081V128.642C278.269 129.431 283.195 130.941 287.005 133.175C290.946 135.408 294.099 138.495 296.463 142.436C298.828 146.377 300.864 151.435 302.572 157.609L310.454 185H283.064L276.955 159.777C275.772 154.522 273.933 150.318 271.437 147.165C269.073 144.013 266.051 141.779 262.373 140.466C258.694 139.152 254.228 138.495 248.973 138.495H226.509V185H201.68ZM226.509 119.381H250.155C260.008 119.381 267.496 117.542 272.62 113.863C277.874 110.185 280.502 104.536 280.502 96.9165C280.502 89.297 278.006 83.6481 273.014 79.9697C268.153 76.2914 260.665 74.4522 250.549 74.4522H226.509V119.381ZM370.357 187.562C362.081 187.562 354.659 186.379 348.09 184.015C341.653 181.65 336.201 178.234 331.735 173.768C327.268 169.17 323.852 163.652 321.488 157.215C319.123 150.778 317.941 143.487 317.941 135.342C317.941 127.197 319.057 119.709 321.291 112.878C323.655 106.047 327.005 100.135 331.34 95.143C335.676 90.1509 340.93 86.2755 347.105 83.5167C353.411 80.758 360.57 79.3786 368.584 79.3786C376.072 79.3786 382.772 80.6266 388.683 83.1226C394.595 85.6187 399.587 89.3627 403.66 94.3548C407.732 99.2154 410.754 105.324 412.724 112.681C414.695 119.906 415.351 128.314 414.695 137.904L334.099 138.495V124.11L400.31 123.519L391.639 131.598C392.427 124.11 391.836 118.001 389.866 113.272C387.895 108.411 385.071 104.864 381.392 102.631C377.714 100.266 373.51 99.0841 368.781 99.0841C363.395 99.0841 358.665 100.529 354.593 103.419C350.52 106.178 347.368 110.251 345.134 115.637C343.032 120.891 341.981 127.329 341.981 134.948C341.981 146.377 344.477 154.916 349.469 160.565C354.593 166.214 361.556 169.039 370.357 169.039C374.298 169.039 377.583 168.579 380.21 167.659C382.969 166.608 385.268 165.295 387.107 163.718C388.946 162.01 390.391 160.105 391.442 158.003C392.624 155.902 393.544 153.668 394.201 151.304L415.877 156.23C414.826 161.091 413.118 165.426 410.754 169.236C408.389 173.045 405.302 176.33 401.492 179.088C397.814 181.847 393.413 183.949 388.289 185.394C383.166 186.839 377.189 187.562 370.357 187.562ZM476.585 187.562C467.652 187.562 459.901 186.248 453.333 183.621C446.896 180.993 441.509 177.315 437.174 172.586C432.97 167.725 429.818 162.076 427.716 155.639C425.614 149.202 424.563 142.239 424.563 134.751C424.563 126.737 425.614 119.381 427.716 112.681C429.949 105.981 433.233 100.135 437.568 95.143C441.904 90.1509 447.224 86.2755 453.53 83.5167C459.967 80.758 467.324 79.3786 475.6 79.3786C483.876 79.3786 491.036 80.758 497.079 83.5167C503.253 86.2755 508.245 90.1509 512.055 95.143C515.865 100.004 518.427 105.718 519.74 112.287L496.488 119.578C496.225 115.637 495.174 112.155 493.335 109.134C491.496 105.981 489 103.551 485.847 101.843C482.694 100.135 478.95 99.2811 474.615 99.2811C470.411 99.2811 466.733 100.135 463.58 101.843C460.558 103.419 457.996 105.718 455.894 108.74C453.924 111.761 452.348 115.44 451.165 119.775C450.114 123.979 449.589 128.708 449.589 133.963C449.589 141.188 450.574 147.363 452.545 152.486C454.515 157.609 457.537 161.616 461.609 164.506C465.682 167.265 470.739 168.644 476.782 168.644C482.168 168.644 486.504 167.659 489.788 165.689C493.204 163.587 495.765 160.894 497.473 157.609C499.312 154.325 500.429 150.712 500.823 146.771L522.893 151.698C522.105 157.084 520.594 161.945 518.361 166.28C516.128 170.615 513.04 174.425 509.099 177.709C505.29 180.862 500.692 183.292 495.305 185C489.919 186.708 483.679 187.562 476.585 187.562ZM557.852 187.562C552.203 187.562 547.145 186.511 542.679 184.409C538.212 182.176 534.665 178.891 532.038 174.556C529.542 170.221 528.294 164.835 528.294 158.398C528.294 153.011 529.279 148.413 531.25 144.604C533.351 140.794 536.439 137.707 540.511 135.342C544.584 132.846 549.641 130.81 555.684 129.233C561.727 127.526 568.821 126.081 576.966 124.898C581.433 124.241 585.046 123.585 587.804 122.928C590.694 122.271 592.796 121.286 594.11 119.972C595.424 118.527 596.081 116.425 596.081 113.666C596.081 109.594 594.636 106.112 591.745 103.222C588.987 100.201 584.454 98.69 578.149 98.69C574.339 98.69 570.66 99.3468 567.114 100.661C563.698 101.974 560.742 104.076 558.246 106.966C555.75 109.725 554.042 113.403 553.123 118.001L530.855 111.104C532.3 105.85 534.402 101.317 537.161 97.5076C539.92 93.5665 543.336 90.2166 547.408 87.4578C551.48 84.6991 556.144 82.6628 561.399 81.3491C566.654 80.0354 572.434 79.3786 578.74 79.3786C588.33 79.3786 596.212 80.955 602.386 84.1079C608.561 87.1294 613.159 91.9244 616.18 98.4929C619.202 104.93 620.712 113.272 620.712 123.519V142.83C620.712 147.297 620.778 151.96 620.909 156.821C621.172 161.55 621.435 166.345 621.698 171.206C622.092 175.935 622.552 180.533 623.077 185H600.81C600.284 181.322 599.825 177.381 599.431 173.177C599.036 168.973 598.708 164.703 598.445 160.368H595.292C593.453 165.36 590.826 169.958 587.41 174.162C583.995 178.234 579.791 181.519 574.799 184.015C569.938 186.379 564.289 187.562 557.852 187.562ZM567.705 169.236C570.332 169.236 572.959 168.776 575.587 167.856C578.346 166.937 581.039 165.557 583.666 163.718C586.294 161.879 588.724 159.646 590.957 157.018C593.19 154.259 595.095 151.041 596.672 147.363L596.278 129.825L601.007 130.613C598.774 132.452 596.015 133.897 592.731 134.948C589.446 135.999 585.965 136.787 582.287 137.313C578.74 137.838 575.127 138.495 571.449 139.283C567.902 139.94 564.683 140.86 561.793 142.042C558.903 143.093 556.604 144.669 554.896 146.771C553.188 148.742 552.334 151.501 552.334 155.048C552.334 159.514 553.779 162.996 556.67 165.492C559.56 167.988 563.238 169.236 567.705 169.236ZM639.664 185V45.091H664.098V185H639.664ZM684.124 185V45.091H708.559V185H684.124Z" fill="url(#paint1_linear_166_13)"/>
<defs>
<filter id="filter0_dddi_166_13" x="23.4908" y="76.6061" width="121.482" height="89.9981" filterUnits="userSpaceOnUse" color-interpolation-filters="sRGB">
<feFlood flood-opacity="0" result="BackgroundImageFix"/>
<feColorMatrix in="SourceAlpha" type="matrix" values="0 0 0 0 0 0 0 0 0 0 0 0 0 0 0 0 0 0 127 0" result="hardAlpha"/>
<feOffset dy="2.93643"/>
<feGaussianBlur stdDeviation="1.46821"/>
<feComposite in2="hardAlpha" operator="out"/>
<feColorMatrix type="matrix" values="0 0 0 0 0 0 0 0 0 0 0 0 0 0 0 0 0 0 0.2 0"/>
<feBlend mode="normal" in2="BackgroundImageFix" result="effect1_dropShadow_166_13"/>
<feColorMatrix in="SourceAlpha" type="matrix" values="0 0 0 0 0 0 0 0 0 0 0 0 0 0 0 0 0 0 127 0" result="hardAlpha"/>
<feOffset dy="2.93643"/>
<feGaussianBlur stdDeviation="1.95762"/>
<feComposite in2="hardAlpha" operator="out"/>
<feColorMatrix type="matrix" values="0 0 0 0 0 0 0 0 0 0 0 0 0 0 0 0 0 0 0.14 0"/>
<feBlend mode="normal" in2="effect1_dropShadow_166_13" result="effect2_dropShadow_166_13"/>
<feColorMatrix in="SourceAlpha" type="matrix" values="0 0 0 0 0 0 0 0 0 0 0 0 0 0 0 0 0 0 127 0" result="hardAlpha"/>
<feOffset dy="0.978809"/>
<feGaussianBlur stdDeviation="3.91523"/>
<feComposite in2="hardAlpha" operator="out"/>
<feColorMatrix type="matrix" values="0 0 0 0 0 0 0 0 0 0 0 0 0 0 0 0 0 0 0.12 0"/>
<feBlend mode="normal" in2="effect2_dropShadow_166_13" result="effect3_dropShadow_166_13"/>
<feBlend mode="normal" in="SourceGraphic" in2="effect3_dropShadow_166_13" result="shape"/>
<feColorMatrix in="SourceAlpha" type="matrix" values="0 0 0 0 0 0 0 0 0 0 0 0 0 0 0 0 0 0 127 0" result="hardAlpha"/>
<feOffset dy="3.91523"/>
<feGaussianBlur stdDeviation="1.95762"/>
<feComposite in2="hardAlpha" operator="arithmetic" k2="-1" k3="1"/>
<feColorMatrix type="matrix" values="0 0 0 0 0 0 0 0 0 0 0 0 0 0 0 0 0 0 0.46 0"/>
<feBlend mode="normal" in2="shape" result="effect4_innerShadow_166_13"/>
</filter>
<linearGradient id="paint0_linear_166_13" x1="0" y1="120" x2="167.05" y2="120" gradientUnits="userSpaceOnUse">
<stop stop-color="#4CEA8E" style="stop-color:#4CEA8E;stop-color:color(display-p3 0.2961 0.9193 0.5558);stop-opacity:1;"/>
<stop offset="0.307692" stop-color="#36E8AA" style="stop-color:#36E8AA;stop-color:color(display-p3 0.2116 0.9115 0.6665);stop-opacity:1;"/>
<stop offset="0.634615" stop-color="#C16AF7" style="stop-color:#C16AF7;stop-color:color(display-p3 0.7571 0.4148 0.9698);stop-opacity:1;"/>
<stop offset="1" stop-color="#3680F1" style="stop-color:#3680F1;stop-color:color(display-p3 0.2100 0.5035 0.9439);stop-opacity:1;"/>
</linearGradient>
<linearGradient id="paint1_linear_166_13" x1="186.31" y1="120" x2="723.31" y2="120" gradientUnits="userSpaceOnUse">
<stop stop-color="#4CEA8E" style="stop-color:#4CEA8E;stop-color:color(display-p3 0.2961 0.9193 0.5558);stop-opacity:1;"/>
<stop offset="0.307692" stop-color="#36E8AA" style="stop-color:#36E8AA;stop-color:color(display-p3 0.2116 0.9115 0.6665);stop-opacity:1;"/>
<stop offset="0.634615" stop-color="#C16AF7" style="stop-color:#C16AF7;stop-color:color(display-p3 0.7571 0.4148 0.9698);stop-opacity:1;"/>
<stop offset="1" stop-color="#3680F1" style="stop-color:#3680F1;stop-color:color(display-p3 0.2100 0.5035 0.9439);stop-opacity:1;"/>
</linearGradient>
</defs>
</svg>
